<svg xmlns="http://www.w3.org/2000/svg" width="26.877" height="26.879" viewBox="0 0 26.877 26.879">
  <g id="花火の無料アイコン" transform="matrix(0.985, -0.174, 0.174, 0.985, -2.106, 2.568)">
    <path id="パス_7" data-name="パス 7" d="M237.584,5.5c.684,0,1.151-1.494,1.328-3,.222-1.888-.575-2.5-1.328-2.5s-1.551.607-1.329,2.5C236.432,4,236.9,5.5,237.584,5.5Z" transform="translate(-224.163)" fill="#dfbc5d"/>
    <path id="パス_8" data-name="パス 8" d="M237.584,432.439c-.687,0-1.152,1.495-1.329,3-.221,1.888.575,2.5,1.329,2.5s1.551-.608,1.328-2.5C238.735,433.933,238.268,432.439,237.584,432.439Z" transform="translate(-224.163 -411.125)" fill="#dfbc5d"/>
    <path id="パス_9" data-name="パス 9" d="M121.669,36.511c.594-.341.251-1.87-.35-3.263-.752-1.746-1.745-1.873-2.4-1.5s-1.038,1.3.1,2.827C119.926,35.793,121.075,36.854,121.669,36.511Z" transform="translate(-112.314 -29.396)" fill="#dfbc5d"/>
    <path id="パス_10" data-name="パス 10" d="M340.7,408.157c-.592.34-.251,1.87.348,3.263.753,1.745,1.747,1.872,2.4,1.5s1.04-1.3-.1-2.826C342.439,408.875,341.289,407.815,340.7,408.157Z" transform="translate(-323.209 -388.46)" fill="#dfbc5d"/>
    <path id="パス_11" data-name="パス 11" d="M34.568,119.033c-1.523-1.135-2.448-.748-2.825-.1s-.25,1.646,1.5,2.4c1.394.6,2.922.941,3.264.35S35.783,119.94,34.568,119.033Z" transform="translate(-29.373 -112.345)" fill="#dfbc5d"/>
    <path id="パス_12" data-name="パス 12" d="M411.4,341.045c-1.391-.6-2.921-.941-3.263-.35s.72,1.745,1.935,2.653c1.524,1.135,2.448.748,2.824.1S413.151,341.8,411.4,341.045Z" transform="translate(-388.431 -323.224)" fill="#dfbc5d"/>
    <path id="パス_13" data-name="パス 13" d="M5.511,237.59c0-.684-1.5-1.15-3-1.328-1.888-.222-2.494.576-2.494,1.328s.606,1.551,2.494,1.33C4.016,238.743,5.511,238.276,5.511,237.59Z" transform="translate(0 -224.185)" fill="#dfbc5d"/>
    <path id="パス_14" data-name="パス 14" d="M435.454,236.254c-1.506.179-3,.644-3,1.329s1.495,1.152,3,1.329c1.889.222,2.5-.575,2.5-1.329S437.343,236.033,435.454,236.254Z" transform="translate(-411.124 -224.178)" fill="#dfbc5d"/>
    <path id="パス_15" data-name="パス 15" d="M33.239,341.045c-1.745.752-1.873,1.746-1.5,2.4s1.3,1.039,2.825-.1c1.215-.908,2.276-2.059,1.933-2.653S34.632,340.444,33.239,341.045Z" transform="translate(-29.373 -323.224)" fill="#dfbc5d"/>
    <path id="パス_16" data-name="パス 16" d="M411.405,121.331c1.747-.753,1.874-1.746,1.5-2.4s-1.3-1.039-2.824.1c-1.215.908-2.277,2.059-1.935,2.653S410.014,121.931,411.405,121.331Z" transform="translate(-388.431 -112.34)" fill="#dfbc5d"/>
    <path id="パス_17" data-name="パス 17" d="M119.016,410.09c-1.135,1.524-.75,2.45-.1,2.826s1.647.25,2.4-1.5c.6-1.394.943-2.923.35-3.263S119.925,408.875,119.016,410.09Z" transform="translate(-112.313 -388.46)" fill="#dfbc5d"/>
    <path id="パス_18" data-name="パス 18" d="M343.34,34.579c1.136-1.525.751-2.449.1-2.827s-1.647-.249-2.4,1.5c-.6,1.393-.942,2.922-.348,3.263S342.432,35.794,343.34,34.579Z" transform="translate(-323.201 -29.397)" fill="#dfbc5d"/>
    <path id="パス_19" data-name="パス 19" d="M210.313,120.067c.517-.138.565-1.352.394-2.52-.212-1.462-.933-1.759-1.5-1.605s-1.044.766-.5,2.139C209.148,119.178,209.8,120.207,210.313,120.067Z" transform="translate(-197.784 -110.096)" fill="#dfbc5d"/>
    <path id="パス_20" data-name="パス 20" d="M270.364,335.686c-.512.139-.564,1.357-.394,2.523.213,1.462.934,1.758,1.5,1.6s1.043-.767.5-2.138C271.531,336.579,270.879,335.549,270.364,335.686Z" transform="translate(-256.052 -318.848)" fill="#dfbc5d"/>
    <path id="パス_21" data-name="パス 21" d="M149.962,150.267c-.411.416-.518,1.184.643,2.1.924.729,2,1.3,2.378.919s-.187-1.456-.916-2.38C151.152,149.748,150.377,149.853,149.962,150.267Z" transform="translate(-142.092 -142.395)" fill="#dc5a69"/>
    <path id="パス_22" data-name="パス 22" d="M315.861,315.567c.415-.414.52-1.185-.639-2.1-.926-.729-2-1.293-2.379-.917s.189,1.455.919,2.38C314.677,316.086,315.447,315.981,315.861,315.567Z" transform="translate(-296.892 -296.627)" fill="#dc5a69"/>
    <path id="パス_23" data-name="パス 23" d="M117.369,210.459c1.168.17,2.385.121,2.52-.395s-.891-1.166-1.986-1.6c-1.372-.545-1.985-.068-2.139.5S115.908,210.245,117.369,210.459Z" transform="translate(-109.913 -197.563)" fill="#dfbc5d"/>
    <path id="パス_24" data-name="パス 24" d="M338.38,270.244c-1.167-.168-2.382-.12-2.521.393s.892,1.165,1.987,1.6c1.373.547,1.988.068,2.14-.5S339.844,270.457,338.38,270.244Z" transform="translate(-318.997 -256.328)" fill="#dfbc5d"/>
    <path id="パス_25" data-name="パス 25" d="M118.071,271.98c1.1-.437,2.126-1.09,1.987-1.606s-1.355-.561-2.521-.391c-1.462.211-1.758.934-1.606,1.5S116.7,272.523,118.071,271.98Z" transform="translate(-110.07 -256.079)" fill="#dc5a69"/>
    <path id="パス_26" data-name="パス 26" d="M337.676,208.71c-1.1.44-2.125,1.089-1.986,1.6s1.354.564,2.521.395c1.462-.213,1.758-.935,1.606-1.5S339.05,208.165,337.676,208.71Z" transform="translate(-318.835 -197.799)" fill="#dc5a69"/>
    <path id="パス_27" data-name="パス 27" d="M150.9,313.757c-1.158.914-1.052,1.689-.637,2.1s1.186.519,2.1-.641c.728-.924,1.294-2,.918-2.379S151.823,313.026,150.9,313.757Z" transform="translate(-142.372 -296.903)" fill="#dfbc5d"/>
    <path id="パス_28" data-name="パス 28" d="M314.93,152.075c1.16-.916,1.053-1.69.642-2.1s-1.187-.52-2.1.641c-.731.926-1.3,2-.919,2.379S314.006,152.8,314.93,152.075Z" transform="translate(-296.616 -142.114)" fill="#dfbc5d"/>
    <path id="パス_29" data-name="パス 29" d="M210.049,335.868c-.512-.138-1.164.89-1.6,1.987-.547,1.373-.071,1.99.5,2.139s1.287-.143,1.5-1.6C210.615,337.222,210.564,336.006,210.049,335.868Z" transform="translate(-197.534 -319.02)" fill="#dc5a69"/>
    <path id="パス_30" data-name="パス 30" d="M271.735,115.76c-.565-.154-1.287.143-1.5,1.6-.171,1.169-.12,2.384.393,2.522s1.166-.891,1.6-1.986C272.778,116.527,272.3,115.913,271.735,115.76Z" transform="translate(-256.305 -109.922)" fill="#dc5a69"/>
    <path id="パス_31" data-name="パス 31" d="M214.536,217.408a2.865,2.865,0,1,0,2.865-2.864A2.865,2.865,0,0,0,214.536,217.408Z" transform="translate(-203.98 -204.003)" fill="#dc5a69"/>
  </g>
</svg>
