<svg xmlns="http://www.w3.org/2000/svg" width="81.859" height="66.485" viewBox="0 0 81.859 66.485">
  <path id="Icon_awesome-twitter" data-name="Icon awesome-twitter" d="M73.445,19.95c.052.727.052,1.454.052,2.182,0,22.179-16.881,47.734-47.734,47.734A47.41,47.41,0,0,1,0,62.334a34.708,34.708,0,0,0,4.051.208A33.6,33.6,0,0,0,24.88,55.374,16.807,16.807,0,0,1,9.194,43.739a21.158,21.158,0,0,0,3.169.26,17.744,17.744,0,0,0,4.415-.571A16.779,16.779,0,0,1,3.324,26.962v-.208a16.9,16.9,0,0,0,7.583,2.129A16.8,16.8,0,0,1,5.713,6.445,47.688,47.688,0,0,0,40.306,24a18.939,18.939,0,0,1-.416-3.844A16.793,16.793,0,0,1,68.926,8.679,33.031,33.031,0,0,0,79.574,4.627,16.732,16.732,0,0,1,72.2,13.873a33.633,33.633,0,0,0,9.661-2.6,36.064,36.064,0,0,1-8.414,8.674Z" transform="translate(0 -3.381)" fill="#dfbc5d" opacity="0.89"/>
</svg>
