<svg xmlns="http://www.w3.org/2000/svg" width="80.019" height="80.001" viewBox="0 0 80.019 80.001">
  <path id="Icon_awesome-instagram" data-name="Icon awesome-instagram" d="M40.013,21.727A20.511,20.511,0,1,0,60.524,42.238,20.479,20.479,0,0,0,40.013,21.727Zm0,33.846A13.335,13.335,0,1,1,53.348,42.238,13.359,13.359,0,0,1,40.013,55.573ZM66.148,20.888A4.784,4.784,0,1,1,61.363,16.1,4.773,4.773,0,0,1,66.148,20.888Zm13.585,4.856c-.3-6.409-1.767-12.085-6.462-16.762C68.593,4.3,62.916,2.84,56.508,2.519c-6.605-.375-26.4-.375-33.007,0-6.391.3-12.068,1.767-16.762,6.444S.6,19.317.276,25.726c-.375,6.605-.375,26.4,0,33.007.3,6.409,1.767,12.085,6.462,16.762S17.092,81.636,23.5,81.958c6.605.375,26.4.375,33.007,0,6.409-.3,12.085-1.767,16.762-6.462,4.677-4.677,6.141-10.354,6.462-16.762.375-6.605.375-26.384,0-32.989ZM71.2,65.82a13.5,13.5,0,0,1-7.6,7.6c-5.266,2.089-17.762,1.607-23.582,1.607S21.68,75.5,16.431,73.425a13.5,13.5,0,0,1-7.6-7.6C6.738,60.554,7.22,48.058,7.22,42.238S6.756,23.9,8.827,18.657a13.5,13.5,0,0,1,7.6-7.6C21.7,8.963,34.194,9.445,40.013,9.445s18.333-.464,23.582,1.607a13.5,13.5,0,0,1,7.6,7.6c2.089,5.266,1.607,17.762,1.607,23.582S73.288,60.572,71.2,65.82Z" transform="translate(0.005 -2.238)" fill="#dc5a69" opacity="0.9"/>
</svg>
